<svg xmlns="http://www.w3.org/2000/svg" viewBox="0 0 994.56 998.616">
  <path fill="#CA9EE6"
    d="M993.99 475.214c.38 7.988.57 16.018.57 24.092 0 195.603-112.26 365.086-275.53 446.965l-192.12-3.968z" />
  <path fill="#85C1DC"
    d="M947.09 286.274c27.21 57.755 43.71 121.608 46.9 188.94L526.91 942.303l-231.08-4.772z" />
  <path fill="#A6D189"
    d="M850.02 147.499c39.73 40.153 72.7 87.038 97.07 138.775L295.83 937.531l-38.09-.787v.145C216.39 914 178.61 885.368 145.47 852.05z" />
  <path fill="#E5C890"
    d="M712.54 49.143c51.32 24.813 97.76 58.215 137.48 98.356L145.47 852.05c-39.8-40.02-72.89-86.791-97.4-138.445z" />
  <path fill="#EF9F76"
    d="M525.07.768c66.85 3.708 130.21 20.699 187.47 48.375L48.07 713.605C20.74 656.003 4.08 592.328.66 525.174z" />
  <path fill="#E78284"
    d="M.66 525.174C.22 516.588 0 507.973 0 499.306 0 223.731 222.83 0 497.28 0c9.34 0 18.61.259 27.79.768z" />
  <path fill="#303446"
    d="M257.745 936.744c7.44-57.029 18.443-106.927 33.049-149.734-70.305-36.162-122.281-96.973-134.393-184.788-10.562-76.537 6.905-165.757 52.399-228.996-11.176-42.437-26.419-124.138-15.316-170.525 2.926-12.23 14-20.422 26.551-19.646 59.275 3.686 107.345 26.989 146.125 72.133 72.967-27.224 165.537-26.785 225.777-9.143 31.525-43.929 68.915-67.642 118.521-79.799 11.659-2.867 23.391 2.473 28.906 13.137 22.235 43.037 24.591 103.497 13.254 153.731 143.169 138.592 106.569 340.407-52.283 436.342 11.651 56.946 18.126 115.878 19.394 176.829-66.835 33.485-142.211 52.331-221.939 52.331-87.009 0-168.834-22.444-240.045-61.872z" />
  <path fill="#C6D0F5"
    d="M663.398 378.434c33.689-2.034 62.713 20.451 71.651 51.332.892 3.101-.351 6.246-3.131 7.855-2.794 1.609-6.217 1.156-8.514-1.141-14.979-14.95-35.752-23.684-57.943-22.543-22.002 1.127-41.019 11.703-53.556 27.59-1.872 2.384-5.032 3.13-7.811 1.828-2.78-1.301-4.286-4.227-3.789-7.329 4.871-30.588 29.93-55.588 63.093-57.592zM444.525 383.729c19.134-1.185 37.054 5.003 51.464 16.194 14.54 11.293 25.541 27.634 30.661 46.475 1.024 3.804-.439 7.666-3.642 9.611-3.204 1.931-7.125 1.331-9.743-1.463-17.159-18.271-40.96-28.994-66.385-27.692-25.058 1.288-46.709 14.058-60.898 33.222-2.165 2.955-5.72 3.818-8.865 2.209-3.145-1.609-4.915-5.193-4.374-8.88 2.706-18.52 11.205-35.298 23.61-47.733 12.508-12.536 29.184-20.758 48.172-21.943zM589.056 499.077c10.283-.659 20.26-1.302 29.9-1.903 3.189-.19 6.291 2.443 7.885 6.656 1.595 4.213 1.273 8.806-.775 11.922-12.829 19.515-21.022 29.199-30.515 30.384-9.787 1.214-21.314-6.686-42.116-23.157-3.745-2.941-5.837-8.061-5.369-13.078.439-5.032 3.409-8.426 7.49-8.69 11.557-.746 22.733-1.448 33.5-2.134zM595.726 569.746c2.428-3.277 6.217-3.964 9.45-1.755 10.255 7.109 19.134 9.625 26.727 7.914 7.431-1.697 15.389-3.335 21.65-13.151 9.757-15.272 12.463-5.618 7.534 6.656-3.043 7.534-8.807 16.355-16.853 22.206-8.25 5.983-19.207 9.07-32.694 4.345-4.696-1.639-9.421-.556-13.459 3.101-9.391 8.499-20.772 13.253-32.592 13.444-12.361.204-25.527-4.521-37.493-15.375-13.268-12.039-13.195-25.264 8.367-11.893 12.625 7.87 23.611 5.573 33.207 3.716 9.348-1.844 18.037-8.251 26.156-19.208z" />
  <path fill="#E78284"
    d="M589.377 838.897c-9.962 20.641-34.187 37.318-55.135 39.029-2.282.176-4.33-.892-5.471-2.881-16.676-29.053-18.49-61.031-12.946-87.918.336-1.624 1.229-2.897 2.648-3.76 1.433-.863 2.969-1.082 4.564-.629 28.277 7.944 49.678 18.11 64.205 30.501 10.064-13.254 23.947-22.426 41.662-27.487a5.784 5.784 0 0 1 7.109 3.862c6.481 21.27 8.236 44.105 2.692 64.687-.805 2.984-4.711 5.384-8.485 4.389-14.687-3.847-29.886-11.22-40.843-19.793z" />
</svg>
